<svg width="14" height="15" viewBox="0 0 14 15" fill="none" xmlns="http://www.w3.org/2000/svg">
<path d="M7.00018 0.375C7.88226 0.37473 8.74119 0.657218 9.45091 1.181C10.1606 1.70479 10.6838 2.44228 10.9435 3.28524C11.2033 4.1282 11.186 5.03223 10.8942 5.86464C10.6024 6.69704 10.0514 7.41399 9.32218 7.91025C10.5879 8.3745 11.6858 9.20695 12.4744 10.3004C13.263 11.3939 13.7063 12.6984 13.7472 14.046C13.751 14.1208 13.7399 14.1956 13.7144 14.266C13.6889 14.3365 13.6496 14.4011 13.5988 14.4562C13.548 14.5112 13.4868 14.5556 13.4186 14.5866C13.3505 14.6177 13.2768 14.6348 13.2019 14.637C13.1271 14.6392 13.0525 14.6264 12.9826 14.5994C12.9128 14.5724 12.849 14.5317 12.7951 14.4797C12.7412 14.4278 12.6981 14.3656 12.6686 14.2967C12.639 14.2279 12.6235 14.1539 12.6229 14.079C12.5783 12.6176 11.9663 11.231 10.9168 10.2131C9.86729 9.19512 8.46265 8.62583 7.00056 8.62583C5.53847 8.62583 4.13383 9.19512 3.0843 10.2131C2.03478 11.231 1.42285 12.6176 1.37818 14.079C1.37371 14.2282 1.31015 14.3695 1.2015 14.4718C1.09284 14.5741 0.947992 14.6291 0.798808 14.6246C0.649624 14.6201 0.508328 14.5566 0.406003 14.4479C0.303679 14.3393 0.248708 14.1944 0.253183 14.0452C0.294244 12.6978 0.737604 11.3935 1.5262 10.3001C2.3148 9.20678 3.41256 8.37445 4.67818 7.91025C3.94895 7.41399 3.39799 6.69704 3.10618 5.86464C2.81438 5.03223 2.79708 4.1282 3.05684 3.28524C3.3166 2.44228 3.83973 1.70479 4.54945 1.181C5.25918 0.657218 6.11811 0.37473 7.00018 0.375ZM4.00018 4.5C4.00018 5.29565 4.31625 6.05871 4.87886 6.62132C5.44147 7.18393 6.20453 7.5 7.00018 7.5C7.79583 7.5 8.55889 7.18393 9.1215 6.62132C9.68411 6.05871 10.0002 5.29565 10.0002 4.5C10.0002 3.70435 9.68411 2.94129 9.1215 2.37868C8.55889 1.81607 7.79583 1.5 7.00018 1.5C6.20453 1.5 5.44147 1.81607 4.87886 2.37868C4.31625 2.94129 4.00018 3.70435 4.00018 4.5Z" fill="black"/>
</svg>
